/* XPM */
static char *_f36b496cf324a22efcb0c5ac2323bb9w740ji5RkfOrKJxv[] = {
/* columns rows colors chars-per-pixel */
"48 48 12 1 ",
"  c None",
". c #211F30",
"X c #ACF7FA",
"o c #6CD9F1",
"O c #2FACDA",
"+ c #B96E54",
"@ c #A14744",
"# c #CF9E6E",
"$ c #E4C997",
"% c #F2BC7E",
"& c #FBDFB1",
"* c white",
/* pixels */
"                                                ",
"                                                ",
"                                                ",
"                                                ",
"                                                ",
"                                                ",
"                                                ",
"                                                ",
"                                                ",
"                                                ",
"                                                ",
"                                                ",
"                                                ",
"                                                ",
"                                                ",
"                   .............                ",
"                 ..XXoooooooooXX.               ",
"                .XooooooooooooooX.              ",
"               .XooO..............              ",
"              .XooO.+@######$#$$##.             ",
"              .XoO.+@########$#$$##.            ",
"             .oooO.+@#########$#$$#.            ",
"             ......+@##########$#$$.            ",
"            .+#$#+.+@###########$#$.            ",
"            .......+@############$$.            ",
"             .OooO.+@+###@@@@@@@##+.            ",
"             .OoooO.+@++++++++++++.             ",
"              .oooo.................            ",
"               ..O.%&.OOOOOOOOOOO.%%.           ",
"                .oo.&.ooooooooo..O.%.           ",
"                .oo.%.oo****Xooo.O.%.           ",
"                .ooO.ooooooooooo.OO.            ",
"                .O..oooooXXXoooo...             ",
"                .OoooOooooooooooo.              ",
"                 .OOoo.......OOoo.              ",
"                  .Ooo.      .Ooo.              ",
"                   ...        ...               ",
"                                                ",
"                                                ",
"                                                ",
"                                                ",
"                                                ",
"                                                ",
"                                                ",
"                                                ",
"                                                ",
"                                                ",
"                                                "
};
