/* XPM */
static char *_f9f179954e44226e4d9cb673b574f66mCMyhJjFVq2e8vpj[] = {
/* columns rows colors chars-per-pixel */
"48 48 111 2 ",
"   c black",
".  c #44352B",
"X  c #5F512E",
"o  c #666044",
"O  c #68634E",
"+  c #6A6868",
"@  c #69655B",
"#  c #6B6A75",
"$  c #4D4C59",
"%  c #211F30",
"&  c #211F30",
"*  c #5B4327",
"=  c #DBB529",
"-  c #EBD95A",
";  c #F0E16D",
":  c #F8F1B4",
">  c #F4E991",
",  c #FCF9D8",
"<  c #211F30",
"1  c None",
"2  c #B0A86C",
"3  c #A69945",
"4  c #997525",
"5  c #342B2D",
"6  c #615831",
"7  c #836429",
"8  c #C77D18",
"9  c #CC852C",
"0  c #C98122",
"q  c #CE8935",
"w  c #856832",
"e  c #39363A",
"r  c #B3B0A0",
"t  c #211F30",
"y  c #B5B4BA",
"u  c #FAF2B1",
"i  c #D5C659",
"p  c #A19132",
"a  c #A8731C",
"s  c #D2991C",
"d  c #E1CA33",
"f  c #E6D246",
"g  c #E8D550",
"h  c #8C7E32",
"j  c #363230",
"k  c #B1AC86",
"l  c #EEDF70",
"z  c #585031",
"x  c #CE8B16",
"c  c #F5E880",
"v  c #EDDD63",
"b  c #F7EC8A",
"n  c #F9F0A4",
"m  c #EADA6A",
"M  c #211F30",
"N  c #F2E477",
"B  c white",
"V  c #FDFBE5",
"C  c #EBDC77",
"Z  c #F8EE97",
"A  c #E9D75D",
"S  c #FBF4BE",
"D  c #817532",
"F  c #E3CE3D",
"G  c #211F30",
"H  c #D4A020",
"J  c #6E4F24",
"K  c #BB7F19",
"L  c #D6A723",
"P  c #B6A432",
"I  c #766B31",
"U  c #5D4A2B",
"Y  c #47372A",
"T  c #94671F",
"R  c #D9AE26",
"E  c #DDBC2D",
"W  c #4C4531",
"Q  c #211F30",
"!  c #523E29",
"~  c #D09219",
"^  c #AC8122",
"/  c #B67316",
"(  c #211F30",
")  c #C39D2A",
"_  c #C5BB6C",
"`  c #514D44",
"'  c #635C3B",
"]  c #AC7C3E",
"[  c #8A7046",
"{  c #605F6B",
"}  c #A57121",
"|  c #D8B02A",
" . c #BEAF4F",
".. c #474131",
"X. c #AE8825",
"o. c #BAAA49",
"O. c #313042",
"+. c #373749",
"@. c #454558",
"#. c #595C70",
"$. c #F2F5F6",
"%. c #FBFCFC",
"&. c #2E2C3E",
"*. c #48475B",
"=. c #D8E1E4",
"-. c #5E606E",
";. c #787A89",
":. c #A8AEB6",
">. c #BFC2C9",
",. c #BDC8CE",
"<. c #B4BFC7",
/* pixels */
"                                                                                                ",
"                                                                                                ",
"                                                                                                ",
"                                                                                                ",
"                                                                                                ",
"                                                                                                ",
"                                                                                                ",
"                        . X o O O O O O O O O O O O O O O + @ # @ # # $                         ",
"                % & & & * = - ; ; ; ; ; ; ; ; ; ; ; ; ; ; : > , > , , + & & & %                 ",
"              < 1 2 3 4 5 X 6 7 8 8 8 8 8 8 8 8 8 8 8 8 8 9 0 q w O O e 3 2 r 1 %               ",
"            t y u i p 4 5 a s d f g g g g g g g g g g g g g g g g f h j p p i u # t             ",
"            t k l z & & * x = f c v b b b b b b b b b n , n n , n c f 6 & & z l @ t             ",
"            t r m M     * x = g b N b b b b b b b b b u B u V B V b g 6     M g O t             ",
"            t 2 g M     * x = g v N b b b b b b b b b b b b V B V b g 6     M C # t             ",
"            t 2 g M     * x = g b b b b b b b b b b b b b b Z u Z b g 6     M A @ t             ",
"            t 2 g M     * x = g b b b b b b b b b b b b b b b b S b g 6     M g O t             ",
"            t 2 g M     * x = g b b b b b b b b b b b b b b b b b b g 6     M g O t             ",
"            t 2 g M     * x = g b N b b b b b b b b b b b b b b b b g 6     M g O t             ",
"            t 2 N D M M * x = F N N N g N b b b b b b b b b N N b N F 6 M M D N O t             ",
"            G D i ; f H J K L d d - v g N N N b b b b b b b b N ; d P I f ; ; i z G             ",
"              % z 6 6 U Y T x R d d F g g g g g g g g g g g g F d E U W 6 6 6 z Q               ",
"                % & & & & ! a ~ H E d d d d d d d d d d d d d d R ^ . & & & & %                 ",
"                            < ! T T T T T T T / / T T T T T T T ! <                             ",
"                              Q & & & & & ( I ) ) W ( & & & & & Q                               ",
"                                          W i ; ; _ `                                           ",
"                                      % ! ' ] q q [ + { Q                                       ",
"                                      M T g b b b b S r &                                       ",
"                                      M T F g g g g g 3 &                                       ",
"                                        < j } 8 | 7 j <                                         ",
"                                          6 - ; ; ; o                                           ",
"                                        < P ; b b b  .<                                         ",
"                              ..6 o O O  .g g g b v g  .O + @ # $                               ",
"                            < X.d f g g g g g g g g g g g m A C o.<                             ",
"                            M ~ H H H H H H H H H H H H H H H H H M                             ",
"                      M O.+.+.# # # +.+.+.# # # +.+.+.# # # +.+.+.# # # M                       ",
"                      M @.#.#.$.$.$.#.#.#.$.$.$.#.#.#.$.$.$.#.#.#.$.$.%.M                       ",
"                      M &.*.*.=.=.=.*.*.*.=.=.=.*.*.*.=.=.=.*.*.*.=.=.$.M                       ",
"                      M -.;.;.:.:.:.;.;.;.:.:.:.;.;.;.:.:.:.;.;.;.:.:.>.M                       ",
"                      M ,.=.=.*.*.*.=.=.=.*.*.*.=.=.=.*.*.*.=.=.=.*.*.#.M                       ",
"                      M <.,.,.&.&.&.,.,.,.&.&.&.,.,.,.&.&.&.,.,.,.&.&.@.M                       ",
"                                                                                                ",
"                                                                                                ",
"                                                                                                ",
"                                                                                                ",
"                                                                                                ",
"                                                                                                ",
"                                                                                                ",
"                                                                                                "
};
