/* XPM */
static char *e93df0c6ad994b15d5dbc2bd1a68d744HE0zybO3uO7F8lWF[] = {
/* columns rows colors chars-per-pixel */
"48 48 11 1 ",
"  c black",
". c None",
"X c #A4CC42",
"o c #72A11D",
"O c #28860F",
"+ c #CC3048",
"@ c #9C1B4D",
"# c #F18B72",
"$ c #E44A4A",
"% c #F7EC8A",
"& c #E1CA33",
/* pixels */
"                                                ",
"                                                ",
"                                                ",
"                                                ",
"                                                ",
"                                                ",
"                                                ",
"                                                ",
"                                                ",
"                                                ",
"                                                ",
"                                                ",
"                                                ",
"                                                ",
"                                                ",
"                                                ",
"                      .. ..                     ",
"                     .Xo.Xo.                    ",
"                     ..O.O..                    ",
"                      .+@+.                     ",
"                     .#$$##.                    ",
"                    .#$%$%$#.                   ",
"                    .$$+$+$$.                   ",
"                    .$$$$$$$.                   ",
"                    .$$$%$$$.                   ",
"                    .+%$+$%+.                   ",
"                     .+$$$+.                    ",
"                     .+$$$+.                    ",
"                     .+&+&+.                    ",
"                      .+++.                     ",
"                      .+++.                     ",
"                       ...                      ",
"                                                ",
"                                                ",
"                                                ",
"                                                ",
"                                                ",
"                                                ",
"                                                ",
"                                                ",
"                                                ",
"                                                ",
"                                                ",
"                                                ",
"                                                ",
"                                                ",
"                                                ",
"                                                "
};
