/* XPM */
static char *_3e61bbee16f4ec2d42d245620fe06a3m9W0idtI9UsBwCMx[] = {
/* columns rows colors chars-per-pixel */
"48 48 7 1 ",
"  c None",
". c #211F30",
"X c #E44A4A",
"o c #F18B72",
"O c #9C1B4D",
"+ c #F9BFA7",
"@ c #CC3048",
/* pixels */
" .XoooooOXooooooooooooooOXooooooooooooooOXooooo+",
" .@XXXXXOXXXXXXXXXXXXXXXOXXXXXXXXXXXXXXXOXXXXXXo",
" .@XXXXXOXXXXXXXXXXXXXXXOXXXXXXXXXXXXXXXOXXXXXXo",
" .@XXXXX.XXXXXXXXXXXXXXX.XXXXXXXXXXXXXXX.XXXXXXX",
" ..OOOO...OOOOOOOOOOOOO...OO...OOOOOOOO...OOOOO.",
" .O@@@@@@@@@@OXXXXXXXXXXXXXXX.XXXXXXXXXXXXXXXOXo",
" .O@@@@@@@@@@OXXXXXXXXXXXXXXXOXXXXXXXXXXXXXXXOXo",
" .O@@@@@@@@@@OXXXXXXXXXXXXXXXOXXXXXXXXXXXXXXXOXo",
" .O@@@@@@@@@@.XXXXXXXXXXXXXXX.XXXXXXXXXXXXXXX.XX",
" .O...OOOOOO...OOOO...OOOOOO...OOOO...OOOOOO...O",
" .O@.XXXXXXXXXXXXXXX.XXXXXXXXXXXXXXX.XXXXXXXXXXo",
" .O@OXXXXXXXXXXXXXXXOXXXXXXXXXXXXXXXOXXXXXXXXXXo",
" .O@OXXXXXXXXXXXXXXXOXXXXXXXXXXXXXXXOXXXXXXXXXXo",
" .O@OXXXXXXXXXXXXXXXOXXXXXXXXXXXXXXXOXXXXXXXXXXo",
" .O@.XXXXXXXXXXXXXXX.XXXXXXXXXXXXXXX.XXXXXXXXXXX",
" .O...O...OOOOOOOOO...OOOOOOOOOOOOO...O...OOOOOO",
" .O@@@@@.XXXXXXXXXXXXXXXOXXXXXXXXXXXXXXX.XXXXXXo",
" .O@@@@@OXXXXXXXXXXXXXXXOXXXXXXXXXXXXXXXOXXXXXXo",
" .O@@@@@OXXXXXXXXXXXXXXXOXXXXXXXXXXXXXXXOXXXXXXo",
" .O@@@@@.XXXXXXXXXXXXXXX.XXXXXXXXXXXXXXX.XXXXXXX",
" ..OOOO...OO...OOOOOOOO...OO...OOOOOOOO...OO...O",
" .O@@@@@@@@@@.XXXXXXXXXXXXXXX.XXXXXXXXXXXXXXX.Xo",
" .O@@@@@@@@@@OXXXXXXXXXXXXXXXOXXXXXXXXXXXXXXXOXo",
" .O@@@@@@@@@@OXXXXXXXXXXXXXXXOXXXXXXXXXXXXXXXOXo",
" .O@@@@@@@@@@.XXXXXXXXXXXXXXX.XXXXXXXXXXXXXXX.XX",
" .O...OOOOOO...OOOO...OOOOOO...OOOO...OOOOOO...O",
" .O@.XXXXXXXXXXXXXXX.XXXXXXXXXXXXXXX.XXXXXXXXXXo",
" .O@OXXXXXXXXXXXXXXXOXXXXXXXXXXXXXXXOXXXXXXXXXXo",
" .O@OXXXXXXXXXXXXXXXOXXXXXXXXXXXXXXXOXXXXXXXXXXo",
" .O@OXXXXXXXXXXXXXXXOXXXXXXXXXXXXXXXOXXXXXXXXXXo",
" .O@.XXXXXXXXXXXXXXX.XXXXXXXXXXXXXXX.XXXXXXXXXXX",
" .O...OOOOOOOOOOOOO...O...OOOOOOOOO...OOOOOOOOOO",
" .O@@@@@OXXXXXXXXXXXXXXX.XXXXXXXXXXXXXXXOXXXXXXo",
" .O@@@@@OXXXXXXXXXXXXXXXOXXXXXXXXXXXXXXXOXXXXXXo",
" .O@@@@@OXXXXXXXXXXXXXXXOXXXXXXXXXXXXXXXOXXXXXXo",
" .O@@@@@.XXXXXXXXXXXXXXX.XXXXXXXXXXXXXXX.XXXXXXX",
" ..OOOO...OO...OOOOOOOO...OOOOOOOOOOOOO...OO...O",
" .O@@@@@@@@@@.XXXXXXXXXXXXXXXOXXXXXXXXXXXXXXX.Xo",
" .O@@@@@@@@@@OXXXXXXXXXXXXXXXOXXXXXXXXXXXXXXXOXo",
" .O@@@@@@@@@@OXXXXXXXXXXXXXXXOXXXXXXXXXXXXXXXOXo",
" .O@@@@@@@@@@.XXXXXXXXXXXXXXX.XXXXXXXXXXXXXXX.XX",
" .O...OOOOOO...OOOO...OOOOOO...OOOO...OOOOOO...O",
" .O@.@@@@@@@@@@@@@@@.@@@@@@@@@@@@@@@.@@@@@@@@@@o",
" .O@O@@@@@@@@@@@@@@@O@@@@@@@@@@@@@@@O@@@@@@@@@@o",
" .O@O@@@@@@@@@@@@@@@O@@@@@@@@@@@@@@@O@@@@@@@@@@o",
" .OOOOOOOOOOOOOOOOOOOOOOOOOOOOOOOOOOOOOOOOOOOOO@",
" ...............................................",
"                                                "
};
